# xmcd
#
# Track frame offsets: 
#        150
#        13138
#        30687
#        41444
#        55365
#        70939
#        84334
#        102036
#        116006
#        133314
#        145719
#        155867
#        170759
#        182519
#
# Disc length: 2620 seconds
#
# Revision: 0
# Processed by: cddbd v1.5.2PL0 Copyright (c) Steve Scherf et al.
# Submitted via: ExactAudioCopy v0.95b4
#
DISCID=c20a3a0e
DTITLE=Del Rey and Suzy Thompson - Hen Party
DYEAR=2010
DGENRE=Blues
TTITLE0=Water Rose Up
TTITLE1=Keep It to Yourself
TTITLE2=Use Good Judgement
TTITLE3=Bus SOng
TTITLE4=Mongoose Hop
TTITLE5=What Do I Care?
TTITLE6=Yaaka Hicky Doola
TTITLE7=Under the Chicken Tree
TTITLE8=Plymouth Rock
TTITLE9=Devil Dance
TTITLE10=Don't Tear My Clothes
TTITLE11=Grandma and Grandpa Blues
TTITLE12=Doin the Memphis Shake
TTITLE13=That's It!
EXTD=
EXTT0=
EXTT1=
EXTT2=
EXTT3=
EXTT4=
EXTT5=
EXTT6=
EXTT7=
EXTT8=
EXTT9=
EXTT10=
EXTT11=
EXTT12=
EXTT13=
PLAYORDER=
